<?xml version="1.0" encoding="UTF-8"?>
<svg version="1.1" xmlns="http://www.w3.org/2000/svg" width="534" height="467">
<path d="M0 0 C1.09316091 -0.00307895 1.09316091 -0.00307895 2.20840588 -0.0062201 C4.65751049 -0.01188758 7.10655882 -0.01043316 9.55566883 -0.00901413 C11.326522 -0.01159791 13.09737458 -0.0146111 14.86822635 -0.01801753 C19.74030312 -0.02608927 24.61236517 -0.0278772 29.48444784 -0.028615 C34.73681971 -0.03046525 39.98918394 -0.03801243 45.2415514 -0.04475021 C56.72916266 -0.05833521 68.21677043 -0.06435849 79.70438838 -0.06876087 C86.87642252 -0.07152296 94.04845532 -0.07576025 101.22048855 -0.08026505 C121.07528283 -0.09245784 140.93007602 -0.10275719 160.78487396 -0.10614014 C162.05575558 -0.1063597 163.32663719 -0.10657927 164.63603036 -0.10680549 C166.54692918 -0.10713291 166.54692918 -0.10713291 168.49643201 -0.10746694 C171.07792993 -0.1079104 173.65942786 -0.10835697 176.24092579 -0.10880661 C178.1616964 -0.10913875 178.1616964 -0.10913875 180.12127046 -0.10947761 C200.87176308 -0.11342591 221.62222058 -0.13088088 242.37269964 -0.15416613 C263.67364137 -0.17787628 284.97456548 -0.19034183 306.27552062 -0.19150805 C318.23653437 -0.19242499 330.19750238 -0.1981821 342.15850353 -0.21632767 C352.34328153 -0.23172408 362.52799964 -0.2368518 372.71278705 -0.22858956 C377.90891451 -0.22468148 383.10492134 -0.22562049 388.30103397 -0.23964691 C393.06009924 -0.25237606 397.81895312 -0.2511969 402.57801805 -0.2390562 C404.29741804 -0.23709751 406.01683296 -0.24018559 407.73621198 -0.24890056 C420.12828716 -0.30772283 431.34105278 -0.01295409 440.73238087 9.10799026 C447.9484177 16.73001103 450.51506262 23.04596332 450.23238087 33.61580276 C448.96381054 41.94947642 444.88407477 49.80991187 438.44722462 55.31892776 C428.18416752 61.88809392 416.86644715 61.56238014 405.1172533 61.51237869 C403.34121955 61.51583942 401.56518794 61.52060677 399.78916079 61.52656043 C394.93058405 61.53904283 390.07218491 61.53291262 385.21360767 61.52360177 C379.96542325 61.51680036 374.71726887 61.52729789 369.46909046 61.53554153 C359.19679963 61.54886911 348.92457461 61.54600554 338.65228122 61.53730361 C330.30308107 61.53052402 321.95389934 61.52961154 313.60469723 61.53287506 C312.41566951 61.53333476 311.2266418 61.53379446 310.00158294 61.53426809 C307.58598712 61.53522728 305.17039131 61.53619992 302.7547955 61.53718586 C280.11345749 61.5457368 257.47215594 61.53591006 234.83082391 61.51978476 C215.40826149 61.50638013 195.98575286 61.50871146 176.56319141 61.52254105 C154.0004208 61.53859909 131.43768213 61.54491468 108.8749066 61.53570426 C106.46858315 61.53474862 104.0622597 61.53380551 101.65593624 61.53287506 C100.47202081 61.53241223 99.28810538 61.53194941 98.06831373 61.53147256 C89.72971939 61.52888347 81.39114533 61.53325188 73.05255413 61.54031372 C62.88987127 61.54873131 52.72725791 61.546443 42.564583 61.53047149 C37.38057167 61.52259259 32.19667619 61.51949079 27.01266575 61.52941895 C22.26493195 61.53837401 17.51742115 61.53341953 12.76970751 61.51748629 C11.05452876 61.51414197 9.33933109 61.5158247 7.62416457 61.52311365 C-2.81642168 61.56407115 -11.86211302 61.0139829 -21.30277538 56.13142776 C-21.30277538 55.47142776 -21.30277538 54.81142776 -21.30277538 54.13142776 C-21.94215038 53.86330276 -22.58152538 53.59517776 -23.24027538 53.31892776 C-25.30277538 52.13142776 -25.30277538 52.13142776 -26.30277538 49.13142776 C-26.96277538 49.13142776 -27.62277538 49.13142776 -28.30277538 49.13142776 C-33.71397272 40.05458062 -34.68237034 31.16851768 -32.87699413 20.65095901 C-31.13309179 15.29086653 -27.44446003 10.88389385 -23.30277538 7.13142776 C-22.64277538 7.13142776 -21.98277538 7.13142776 -21.30277538 7.13142776 C-21.30277538 6.47142776 -21.30277538 5.81142776 -21.30277538 5.13142776 C-19.90999521 4.47903618 -18.51338327 3.83482224 -17.11527538 3.19392776 C-16.3379707 2.83427933 -15.56066601 2.47463089 -14.75980663 2.10408401 C-9.85027609 0.16056556 -5.25128699 0.00503936 0 0 Z " fill="#313131" transform="translate(55.302775382995605,64.86857223510742)"/>
<path d="M0 0 C0.73161616 -0.00205263 1.46323232 -0.00410527 2.21701866 -0.0062201 C4.66977012 -0.01187676 7.12246519 -0.01043451 9.57522202 -0.00901413 C11.35106303 -0.01159852 13.12690347 -0.01461189 14.9027431 -0.01801753 C19.7839621 -0.02608192 24.66516638 -0.02787679 29.54639125 -0.028615 C34.81033392 -0.0304665 40.07426898 -0.03801428 45.33820724 -0.04475021 C56.84848584 -0.05832954 68.35876094 -0.06435748 79.86904621 -0.06876087 C87.05565909 -0.07152367 94.24227063 -0.07576107 101.4288826 -0.08026505 C121.3257514 -0.09245663 141.22261912 -0.10275653 161.11949158 -0.10614014 C162.39280568 -0.1063597 163.66611978 -0.10657927 164.97801916 -0.10680549 C166.25437855 -0.10702377 167.53073794 -0.10724204 168.84577489 -0.10746694 C171.43216531 -0.1079104 174.01855572 -0.10835697 176.60494614 -0.10880661 C177.88788499 -0.10902804 179.17082384 -0.10924947 180.49263963 -0.10947761 C201.28510106 -0.11342641 222.07752746 -0.13088344 242.86997536 -0.15416613 C264.21614924 -0.17787602 285.56230554 -0.1903418 306.9084928 -0.19150805 C318.89408384 -0.19242496 330.87962921 -0.19818126 342.86520767 -0.21632767 C353.07009018 -0.23172366 363.27491293 -0.23685201 373.47980484 -0.22858956 C378.68606549 -0.22468146 383.89220576 -0.22562062 389.09845161 -0.23964691 C393.86672896 -0.25237578 398.63479532 -0.25119715 403.40307233 -0.2390562 C405.12580714 -0.23709747 406.84855685 -0.24018575 408.57127073 -0.24890056 C420.59282155 -0.30585278 431.00888132 0.03496155 440.55855942 8.13142776 C440.55855942 8.79142776 440.55855942 9.45142776 440.55855942 10.13142776 C441.21855942 10.13142776 441.87855942 10.13142776 442.55855942 10.13142776 C443.35406334 11.52507776 444.1447778 12.92146207 444.93355942 14.31892776 C445.37441879 15.09623245 445.81527817 15.87353714 446.26949692 16.67439651 C450.06103992 23.90130727 450.8288229 30.90352256 448.88277817 38.91267776 C448.1779136 41.02393088 447.42763088 43.08290217 446.55855942 45.13142776 C445.89855942 45.13142776 445.23855942 45.13142776 444.55855942 45.13142776 C444.39355942 45.81205276 444.22855942 46.49267776 444.05855942 47.19392776 C441.07701858 53.03277856 436.0387235 56.90240858 429.87105942 59.00642776 C428.44379924 59.41868939 427.00528659 59.79377151 425.55855942 60.13142776 C424.83795763 60.3041907 424.11735584 60.47695364 423.37491763 60.65495181 C419.98298908 61.22880367 416.76254395 61.25952033 413.32104683 61.26285553 C412.23846555 61.26593448 412.23846555 61.26593448 411.13401395 61.26907563 C408.7088921 61.27474259 406.2838271 61.27328876 403.8586998 61.27186966 C402.10505852 61.27445347 400.35141783 61.27746668 398.59777796 61.28087306 C393.77323807 61.28894447 388.94871305 61.29073271 384.1241672 61.29147053 C378.92290138 61.29332085 373.72164329 61.3008681 368.52038193 61.30760574 C357.14427023 61.32119079 345.76816205 61.32721411 334.39204359 61.3316164 C327.28901565 61.33437864 320.18598906 61.33861597 313.08296204 61.34312057 C293.41775155 61.35531367 273.75254215 61.36561277 254.08732796 61.36899567 C252.82856835 61.36921523 251.56980875 61.3694348 250.27290491 61.36966102 C248.38023897 61.36998843 248.38023897 61.36998843 246.44933736 61.37032247 C243.892483 61.37076593 241.33562863 61.3712125 238.77877426 61.37166214 C237.51048529 61.37188357 236.24219632 61.372105 234.93547435 61.37233314 C214.38611945 61.37628088 193.83680002 61.393734 173.28745882 61.41702166 C152.19104449 61.44073636 131.09464796 61.45319758 109.99822009 61.45436358 C98.15286937 61.4552803 86.30756486 61.46103171 74.46222687 61.4791832 C64.37519343 61.49458578 54.28822048 61.49970371 44.20117752 61.49144509 C39.05555738 61.48753912 33.91005903 61.48846571 28.76445389 61.50250244 C24.05036263 61.51524432 19.33648466 61.51404124 14.62239368 61.50191173 C12.9204724 61.49995524 11.21853599 61.50303095 9.51663594 61.51175609 C-2.51729062 61.56952551 -13.07884873 60.80954252 -23.44144058 54.13142776 C-23.44144058 53.47142776 -23.44144058 52.81142776 -23.44144058 52.13142776 C-24.33089371 51.79691605 -24.33089371 51.79691605 -25.23831558 51.45564651 C-29.93858384 48.63048527 -31.74170038 43.13195379 -33.44144058 38.13142776 C-34.81278756 28.14310947 -33.70710817 20.19840057 -27.93362808 11.98689651 C-20.37832055 2.51640638 -11.80740895 0.01130775 0 0 Z " fill="#303030" transform="translate(55.44144058227539,346.8685722351074)"/>
<path d="M0 0 C1.09579047 -0.00262956 1.09579047 -0.00262956 2.21371812 -0.00531223 C4.66274682 -0.00996587 7.11171598 -0.00750837 9.56074715 -0.00507832 C11.33388859 -0.0069466 13.10702961 -0.00924738 14.88016999 -0.01194364 C19.75385042 -0.01806576 24.6275137 -0.01792756 29.5011971 -0.01674926 C34.75692017 -0.01654536 40.01263772 -0.02206297 45.26835823 -0.02680683 C55.56537498 -0.03511601 65.862386 -0.03786179 76.15940581 -0.03841921 C84.5278075 -0.03889421 92.89620729 -0.04094814 101.26460838 -0.04411983 C124.98377236 -0.05292684 148.70293181 -0.05753909 172.42209743 -0.05678936 C174.34046827 -0.05672943 174.34046827 -0.05672943 176.29759407 -0.05666828 C177.57806693 -0.0566274 178.85853979 -0.05658652 180.17781486 -0.0565444 C200.93605313 -0.05613783 221.69427326 -0.06571 242.45250629 -0.07980665 C263.76024999 -0.09416246 285.06798484 -0.10107728 306.37573349 -0.10021287 C318.34112827 -0.09988065 330.30650403 -0.102639 342.27189445 -0.11339092 C352.45816093 -0.12248542 362.64439978 -0.12467979 372.83066855 -0.1178815 C378.02855463 -0.1146111 383.22638766 -0.1145784 388.42426872 -0.12323475 C393.1825346 -0.13107757 397.94070517 -0.12969105 402.69896866 -0.12095062 C404.42032042 -0.11941074 406.14167921 -0.12125008 407.86302267 -0.12681069 C410.20396296 -0.133872 412.54456903 -0.12857629 414.88549805 -0.12025452 C416.18544578 -0.12047188 417.48539352 -0.12068925 418.82473361 -0.12091321 C426.81427254 0.41163143 434.46755328 2.73156336 440.56859016 8.12863445 C440.56859016 8.78863445 440.56859016 9.44863445 440.56859016 10.12863445 C441.22859016 10.12863445 441.88859016 10.12863445 442.56859016 10.12863445 C443.36409408 11.52228445 444.15480855 12.91866876 444.94359016 14.31613445 C445.38444954 15.09343914 445.82530891 15.87074383 446.27952766 16.6716032 C449.98618602 23.73671867 450.82661316 30.60986205 449.03343391 38.4762907 C445.97601884 47.14732033 440.45922984 53.08556977 432.75609016 57.87863445 C422.90825835 61.74052928 412.71020937 61.41478545 402.30542183 61.38933086 C400.55158909 61.39235435 398.79775767 61.39624482 397.04392856 61.40092343 C392.24206708 61.41118654 387.4402804 61.40902591 382.63841283 61.40474284 C377.45290919 61.40227258 372.26742342 61.41129345 367.08192635 61.41878033 C356.93016312 61.43152059 346.77842635 61.43332189 336.62665648 61.43098006 C328.37469752 61.42919615 320.12274658 61.43094812 311.87078857 61.43520451 C310.10829206 61.43609729 310.10829206 61.43609729 308.31018956 61.43700811 C305.92310294 61.43821987 303.53601632 61.43943401 301.14892971 61.44065049 C278.77034326 61.45152324 256.39177189 61.44936466 234.0131846 61.44326564 C213.54497655 61.43809559 193.07681607 61.44935474 172.60861743 61.46836386 C151.58436251 61.48773953 130.56013011 61.4959988 109.5358662 61.49224061 C97.73530666 61.4903283 85.93478763 61.49281914 74.13423538 61.50695515 C64.0894061 61.51886637 54.04464226 61.52027663 43.99981207 61.50816498 C38.87643814 61.50227479 33.75318393 61.50118087 28.62981796 61.51316738 C23.93627536 61.52402059 19.24295253 61.52092943 14.54942023 61.5069057 C12.85505291 61.50425726 11.1606684 61.50662991 9.46631796 61.51464156 C-2.54491864 61.56747668 -13.08942183 60.79347117 -23.43140984 54.12863445 C-23.43140984 53.46863445 -23.43140984 52.80863445 -23.43140984 52.12863445 C-24.42140984 51.79863445 -25.41140984 51.46863445 -26.43140984 51.12863445 C-26.43140984 50.46863445 -26.43140984 49.80863445 -26.43140984 49.12863445 C-27.09140984 49.12863445 -27.75140984 49.12863445 -28.43140984 49.12863445 C-33.81358954 39.88281861 -34.79506507 31.24500548 -33.02515984 20.7106657 C-30.46368999 12.26792626 -23.23382876 6.03401856 -15.70484734 2.00363445 C-10.60412975 0.04047167 -5.40777672 0.00293114 0 0 Z " fill="#303030" transform="translate(55.43140983581543,205.87136554718018)"/>
<path d="M0 0 C-1.423125 0.3403125 -1.423125 0.3403125 -2.875 0.6875 C-6.19323388 1.69083714 -6.19323388 1.69083714 -7.375 4.625 C-7.58125 5.40875 -7.7875 6.1925 -8 7 C-8.33 6.34 -8.66 5.68 -9 5 C-10.98 5.66 -12.96 6.32 -15 7 C-6.16916168 -2.61002994 -6.16916168 -2.61002994 0 0 Z " fill="#838383" transform="translate(46,349)"/>
<path d="M0 0 C2.475 0.99 2.475 0.99 5 2 C5 2.99 5 3.98 5 5 C6.43750191 6.68798827 6.43750191 6.68798827 8 8 C7.01 8.495 7.01 8.495 6 9 C6 8.34 6 7.68 6 7 C5.38125 6.773125 4.7625 6.54625 4.125 6.3125 C1.38589791 4.62070165 0.94975528 3.00755839 0 0 Z " fill="#929292" transform="translate(26,392)"/>
<path d="M0 0 C0.66 0.33 1.32 0.66 2 1 C-0.12055614 4.1808342 -1.63050557 5.31525278 -5 7 C-5.66 6.67 -6.32 6.34 -7 6 C-4.69 4.02 -2.38 2.04 0 0 Z " fill="#949494" transform="translate(36,210)"/>
</svg>
